<svg width="55" height="55" viewBox="0 0 55 55" fill="none" xmlns="http://www.w3.org/2000/svg">
<circle cx="27.369" cy="27.3778" r="23.6298" fill="#151B26"/>
<path d="M26.8074 14.9284C26.9843 14.3841 27.7542 14.3841 27.9311 14.9284L30.4198 22.5877C30.4988 22.8311 30.7257 22.9959 30.9816 22.9959H39.0351C39.6073 22.9959 39.8453 23.7282 39.3823 24.0645L32.8669 28.7983C32.6598 28.9487 32.5732 29.2153 32.6523 29.4587L35.141 37.1181C35.3178 37.6623 34.6949 38.1149 34.2319 37.7785L27.7165 33.0448C27.5094 32.8944 27.2291 32.8944 27.022 33.0448L20.5066 37.7785C20.0436 38.1149 19.4207 37.6623 19.5976 37.1181L22.0862 29.4587C22.1653 29.2153 22.0787 28.9487 21.8716 28.7983L15.3562 24.0645C14.8932 23.7282 15.1312 22.9959 15.7034 22.9959H23.7569C24.0129 22.9959 24.2397 22.8311 24.3188 22.5877L26.8074 14.9284Z" fill="url(#paint0_linear_969_7008)"/>
<defs>
<linearGradient id="paint0_linear_969_7008" x1="39.5217" y1="15.777" x2="15.7692" y2="39.7136" gradientUnits="userSpaceOnUse">
<stop stop-color="#5390E3"/>
<stop offset="1" stop-color="#1357B3"/>
</linearGradient>
</defs>
</svg>
